<svg xmlns="http://www.w3.org/2000/svg" xmlns:svg="http://www.w3.org/2000/svg" xmlns:xlink="http://www.w3.org/1999/xlink" id="Layer_1" x="0" y="0" enable-background="new 0 0 960 150" preserveAspectRatio="none" version="1.1" viewBox="0 0 118.383 149.1" xml:space="preserve"><metadata id="metadata3810"/><path id="path3432" d="M 41.68283,33.3 8.38283,0 c 0,0 -7.3,23.2 -8.10000002,31.1 -0.7,6.9 -0.3,14.6 3.50000002,20.7 3.6,5.8 10.8,7.6 16.5,3.7 l 21.4,-22.2 z" style="fill:#815631"/><path id="path3434" d="m 71.78283,34.7 46.5,-12.6 c 0,0 -5.3,24.3 -8.6,31.7 -2.9,6.5 -7.2,13.1 -13.6,16.6 -6.2,3.3 -13.5,1.3 -16.5,-5.1 l -7.8,-30.6 z" style="fill:#815631"/><path id="path3436" d="m 34.28283,27.7 1.2,-0.3 -26.8,-27.2 14.6,32.7 c 2.5,-1.6 6.2,-3.8 11,-5.2 z" style="fill:#483729"/><path id="path3438" d="m 89.78283,43.4 28.6,-21.4 -38.6,10.5 3.9,3.5 c 1.7,2 3.7,3.9 6.1,7.4 z" style="fill:#483729"/><rect id="rect3440" width="18.7" height="11.7" x="39.583" y="90" style="fill:#d69e63"/><path id="path3442" d="m 73.58283,107.1 c 0,0 6,24.6 6,25.6 0,1 -7.2,3.8 -7.2,3.8 l -7.1,-13 1.7,-12.1 6.6,-4.3 z" style="fill:#d69e63"/><polygon id="polygon3444" points="506.3 117.4 505.8 114.9 497.8 116 498 118.5" style="fill:#825730" transform="translate(-430.51717,-1.3)"/><polygon id="polygon3446" points="507.4 122 506.8 119.4 498.1 120.4 498.2 123" style="fill:#825730" transform="translate(-430.51717,-1.3)"/><polygon id="polygon3448" points="457.4 150.4 459.5 112.6 452.9 108.4 445.7 140.5 445.7 150.4" style="fill:#e8b779" transform="translate(-430.51717,-1.3)"/><path id="path3450" d="m 65.28283,110.9 0.8,3.1 11.3,-5.2 c 0,0 -3.7,-7.5 -6.9,-10.7 -0.1,-0.1 -0.3,-0.2 -0.5,-0.4 -0.2,-0.2 -0.4,-0.4 -0.7,-0.6 -1.6,-1 -3.9,-2 -6,-2.9 0,0 0,0 -0.1,0 -2.5,-1 -4.6,-1.7 -4.6,-1.7 0,0 -3.5,7.3 -9.4,7.2 -6,0 -9.4,-7.2 -9.4,-7.2 -3,0.3 -11.2,4.6 -11.2,4.6 -4.2,1.8 -9.7,12.1 -9.7,12.1 l 11.3,4.8 1,-3 -3,38 h 40.1 l -2.9,-37.5 -0.1,-0.6 z" style="fill:#3d4f72"/><polygon id="polygon3452" points="450.9 117.4 451.4 114.9 459.4 116 459.2 118.5" style="fill:#825730" transform="translate(-430.51717,-1.3)"/><polygon id="polygon3454" points="449.8 122 450.4 119.4 459.1 120.4 459 123" style="fill:#825730" transform="translate(-430.51717,-1.3)"/><rect id="rect3456" width=".6" height=".6" x="57.483" y="103.4" style="fill:#bc558e"/><rect id="rect3458" width=".6" height=".6" x="59.383" y="104.6" style="fill:#bc558e"/><rect id="rect3460" width="2.5" height="2.5" x="41.983" y="111.8" style="fill:#fff"/><rect id="rect3462" width="2.5" height="2.5" x="41.983" y="114" style="fill:#fff"/><rect id="rect3464" width="2.5" height="2.5" x="41.983" y="116.3" style="fill:#fff"/><rect id="rect3466" width="2.5" height="2.5" x="41.983" y="118.6" style="fill:#fff"/><rect id="rect3468" width=".6" height=".6" x="44.783" y="110.9" style="fill:#fff"/><rect id="rect3470" width=".6" height=".6" x="44.783" y="111.4" style="fill:#fff"/><rect id="rect3472" width=".6" height=".6" x="44.783" y="112" style="fill:#fff"/><rect id="rect3474" width=".6" height=".6" x="44.783" y="112.6" style="fill:#fff"/><rect id="rect3476" width=".6" height=".6" x="45.383" y="110.9" style="fill:#fff"/><rect id="rect3478" width=".6" height=".6" x="45.383" y="111.4" style="fill:#fff"/><rect id="rect3480" width=".6" height=".6" x="45.383" y="112" style="fill:#fff"/><rect id="rect3482" width=".6" height=".6" x="45.383" y="112.6" style="fill:#fff"/><rect id="rect3484" width=".6" height=".6" x="46.183" y="110.6" style="fill:#fff"/><rect id="rect3486" width=".6" height=".6" x="45.983" y="111.4" style="fill:#fff"/><rect id="rect3488" width=".6" height=".6" x="45.983" y="112" style="fill:#fff"/><rect id="rect3490" width=".6" height=".6" x="45.983" y="112.6" style="fill:#fff"/><rect id="rect3492" width=".6" height=".6" x="49.283" y="107.4" style="fill:#fff"/><rect id="rect3494" width=".6" height=".6" x="46.783" y="111.2" style="fill:#fff"/><rect id="rect3496" width=".6" height=".6" x="46.583" y="112" style="fill:#fff"/><rect id="rect3498" width=".6" height=".6" x="46.583" y="112.6" style="fill:#fff"/><rect id="rect3500" width="2.5" height="2.5" x="44.183" y="114" style="fill:#fff"/><rect id="rect3502" width="2.5" height="2.5" x="44.183" y="116.3" style="fill:#fff"/><rect id="rect3504" width="2.5" height="2.5" x="44.183" y="118.6" style="fill:#fff"/><rect id="rect3506" width=".6" height=".6" x="47.883" y="110.1" style="fill:#fff"/><rect id="rect3508" width=".6" height=".6" x="47.883" y="110.7" style="fill:#fff"/><rect id="rect3510" width=".6" height=".6" x="47.883" y="111.2" style="fill:#fff"/><rect id="rect3512" width=".6" height=".6" x="47.883" y="111.8" style="fill:#fff"/><rect id="rect3514" width=".6" height=".6" x="48.683" y="109.6" style="fill:#fff"/><rect id="rect3516" width=".6" height=".6" x="48.483" y="110.7" style="fill:#fff"/><rect id="rect3518" width=".6" height=".6" x="48.483" y="111.2" style="fill:#fff"/><rect id="rect3520" width=".6" height=".6" x="48.483" y="111.8" style="fill:#fff"/><rect id="rect3522" width=".6" height=".6" x="51.883" y="106.2" style="fill:#fff"/><rect id="rect3524" width=".6" height=".6" x="49.383" y="110.3" style="fill:#fff"/><rect id="rect3526" width=".6" height=".6" x="48.983" y="111.2" style="fill:#fff"/><rect id="rect3528" width=".6" height=".6" x="48.983" y="111.8" style="fill:#fff"/><rect id="rect3530" width=".6" height=".6" x="54.583" y="106.2" style="fill:#fff"/><rect id="rect3532" width=".6" height=".6" x="53.083" y="107.5" style="fill:#fff"/><rect id="rect3534" width=".6" height=".6" x="50.083" y="110.9" style="fill:#fff"/><rect id="rect3536" width=".6" height=".6" x="49.583" y="111.8" style="fill:#fff"/><rect id="rect3538" width=".6" height=".6" x="47.283" y="113.3" style="fill:#fff"/><rect id="rect3540" width=".6" height=".6" x="47.283" y="113.9" style="fill:#fff"/><rect id="rect3542" width=".6" height=".6" x="47.283" y="114.4" style="fill:#fff"/><rect id="rect3544" width=".6" height=".6" x="47.283" y="115" style="fill:#fff"/><rect id="rect3546" width=".6" height=".6" x="47.783" y="113.3" style="fill:#fff"/><rect id="rect3548" width=".6" height=".6" x="47.783" y="113.9" style="fill:#fff"/><rect id="rect3550" width=".6" height=".6" x="47.783" y="114.4" style="fill:#fff"/><rect id="rect3552" width=".6" height=".6" x="47.783" y="115" style="fill:#fff"/><rect id="rect3554" width=".6" height=".6" x="48.583" y="113" style="fill:#fff"/><rect id="rect3556" width=".6" height=".6" x="48.383" y="113.9" style="fill:#fff"/><rect id="rect3558" width=".6" height=".6" x="48.383" y="114.4" style="fill:#fff"/><rect id="rect3560" width=".6" height=".6" x="48.383" y="115" style="fill:#fff"/><rect id="rect3562" width=".6" height=".6" x="52.083" y="110.2" style="fill:#fff"/><rect id="rect3564" width=".6" height=".6" x="49.283" y="113.6" style="fill:#fff"/><rect id="rect3566" width=".6" height=".6" x="48.983" y="114.4" style="fill:#fff"/><rect id="rect3568" width=".6" height=".6" x="48.983" y="115" style="fill:#fff"/><rect id="rect3570" width="2.5" height="2.5" x="46.483" y="116.3" style="fill:#fff"/><rect id="rect3572" width="2.5" height="2.5" x="46.483" y="118.6" style="fill:#fff"/><rect id="rect3574" width=".6" height=".6" x="51.083" y="109.5" style="fill:#fff"/><rect id="rect3576" width=".6" height=".6" x="51.083" y="110.1" style="fill:#fff"/><rect id="rect3578" width=".6" height=".6" x="51.083" y="110.6" style="fill:#fff"/><rect id="rect3580" width=".6" height=".6" x="51.083" y="111.2" style="fill:#fff"/><rect id="rect3582" width=".6" height=".6" x="54.183" y="105.7" style="fill:#fff"/><rect id="rect3584" width=".6" height=".6" x="51.583" y="110.1" style="fill:#fff"/><rect id="rect3586" width=".6" height=".6" x="51.583" y="110.6" style="fill:#fff"/><rect id="rect3588" width=".6" height=".6" x="51.583" y="111.2" style="fill:#fff"/><g id="g3590" transform="translate(-430.51717,-1.3)"><g id="g3592"><defs id="defs3594"><rect id="SVGID_1_" width=".6" height=".6" x="484" y="110.4"/></defs><use id="use3597" width="960" height="150" x="0" y="0" overflow="visible" xlink:href="#SVGID_1_" style="fill:#fff;overflow:visible"/><clipPath id="SVGID_2_"><use id="use3600" width="960" height="150" x="0" y="0" overflow="visible" xlink:href="#SVGID_1_" style="overflow:visible"/></clipPath><rect id="rect3602" width=".6" height=".6" x="484" y="110.4" clip-path="url(#SVGID_2_)" style="fill:#fff"/></g></g><rect id="rect3604" width=".6" height=".6" x="52.183" y="110.6" style="fill:#fff"/><rect id="rect3606" width=".6" height=".6" x="52.183" y="111.2" style="fill:#fff"/><rect id="rect3608" width=".6" height=".6" x="56.183" y="108.3" style="fill:#fff"/><rect id="rect3610" width=".6" height=".6" x="52.783" y="111.2" style="fill:#fff"/><rect id="rect3612" width=".6" height=".6" x="50.483" y="112.7" style="fill:#fff"/><rect id="rect3614" width=".6" height=".6" x="50.483" y="113.3" style="fill:#fff"/><rect id="rect3616" width=".6" height=".6" x="50.483" y="113.8" style="fill:#fff"/><rect id="rect3618" width=".6" height=".6" x="50.483" y="114.4" style="fill:#fff"/><rect id="rect3620" width=".6" height=".6" x="51.383" y="112.2" style="fill:#fff"/><rect id="rect3622" width=".6" height=".6" x="50.983" y="113.3" style="fill:#fff"/><rect id="rect3624" width=".6" height=".6" x="50.983" y="113.8" style="fill:#fff"/><rect id="rect3626" width=".6" height=".6" x="50.983" y="114.4" style="fill:#fff"/><rect id="rect3628" width=".6" height=".6" x="54.983" y="109.1" style="fill:#fff"/><rect id="rect3630" width=".6" height=".6" x="51.983" y="112.9" style="fill:#fff"/><rect id="rect3632" width=".6" height=".6" x="51.583" y="113.8" style="fill:#fff"/><rect id="rect3634" width=".6" height=".6" x="51.583" y="114.4" style="fill:#fff"/><rect id="rect3636" width=".6" height=".6" x="56.283" y="108" style="fill:#fff"/><rect id="rect3638" width=".6" height=".6" x="55.283" y="110.4" style="fill:#fff"/><rect id="rect3640" width=".6" height=".6" x="52.683" y="113.5" style="fill:#fff"/><rect id="rect3642" width=".6" height=".6" x="52.183" y="114.4" style="fill:#fff"/><rect id="rect3644" width=".6" height=".6" x="49.683" y="115.7" style="fill:#fff"/><rect id="rect3646" width=".6" height=".6" x="49.683" y="116.3" style="fill:#fff"/><rect id="rect3648" width=".6" height=".6" x="49.683" y="116.9" style="fill:#fff"/><rect id="rect3650" width=".6" height=".6" x="49.683" y="117.4" style="fill:#fff"/><rect id="rect3652" width=".6" height=".6" x="50.283" y="115.7" style="fill:#fff"/><rect id="rect3654" width=".6" height=".6" x="50.283" y="116.3" style="fill:#fff"/><rect id="rect3656" width=".6" height=".6" x="50.283" y="116.9" style="fill:#fff"/><rect id="rect3658" width=".6" height=".6" x="50.283" y="117.4" style="fill:#fff"/><rect id="rect3660" width=".6" height=".6" x="51.083" y="115.5" style="fill:#fff"/><rect id="rect3662" width=".6" height=".6" x="50.783" y="116.3" style="fill:#fff"/><rect id="rect3664" width=".6" height=".6" x="50.783" y="116.9" style="fill:#fff"/><rect id="rect3666" width=".6" height=".6" x="50.783" y="117.4" style="fill:#fff"/><rect id="rect3668" width=".6" height=".6" x="54.983" y="113" style="fill:#fff"/><rect id="rect3670" width=".6" height=".6" x="51.683" y="116.1" style="fill:#fff"/><rect id="rect3672" width=".6" height=".6" x="51.383" y="116.9" style="fill:#fff"/><rect id="rect3674" width=".6" height=".6" x="51.383" y="117.4" style="fill:#fff"/><rect id="rect3676" width="2.5" height="2.5" x="48.783" y="118.6" style="fill:#fff"/><g id="g3678" transform="translate(-430.51717,-1.3)"><path id="path3680" d="m 465.3,129.7 c 0.1,0.1 0.4,0.2 0.6,0.2 0.3,0 0.4,-0.1 0.4,-0.3 0,-0.2 -0.1,-0.3 -0.4,-0.4 -0.5,-0.2 -0.7,-0.5 -0.7,-0.8 0,-0.5 0.4,-0.8 0.9,-0.8 0.3,0 0.5,0.1 0.6,0.1 l -0.1,0.5 c -0.1,-0.1 -0.3,-0.1 -0.5,-0.1 -0.2,0 -0.3,0.1 -0.3,0.3 0,0.2 0.1,0.2 0.4,0.4 0.4,0.2 0.7,0.4 0.7,0.8 0,0.5 -0.4,0.8 -1,0.8 -0.3,0 -0.6,-0.1 -0.7,-0.2 l 0.1,-0.5 z" style="fill:#fff"/><path id="path3682" d="m 469.3,129.7 c 0,0.2 0,0.5 0,0.6 h -0.6 l 0,-0.3 h 0 c -0.2,0.2 -0.4,0.3 -0.7,0.3 -0.5,0 -0.8,-0.4 -0.8,-0.8 0,-0.7 0.6,-1 1.5,-1 v 0 c 0,-0.2 -0.1,-0.5 -0.5,-0.5 -0.2,0 -0.5,0.1 -0.6,0.2 l -0.1,-0.4 c 0.2,-0.1 0.5,-0.2 0.9,-0.2 0.8,0 1,0.5 1,1.1 v 1 z m -0.6,-0.7 c -0.4,0 -0.8,0.1 -0.8,0.5 0,0.3 0.2,0.4 0.4,0.4 0.2,0 0.4,-0.1 0.5,-0.3 0,0 0,-0.1 0,-0.1 V 129 z" style="fill:#fff"/><path id="path3684" d="m 470,128.4 c 0,-0.3 0,-0.5 0,-0.8 h 0.6 l 0,0.4 h 0 c 0.1,-0.2 0.4,-0.4 0.8,-0.4 0.5,0 0.9,0.3 0.9,1.1 v 1.6 l -0.6,0 0,-1.5 c 0,-0.3 -0.1,-0.6 -0.4,-0.6 -0.2,0 -0.4,0.2 -0.5,0.4 0,0.1 0,0.1 0,0.2 l 0,1.6 H 470 v -2 z" style="fill:#fff"/><path id="path3686" d="m 475.1,126.5 0,3.1 c 0,0.3 0,0.5 0,0.7 l -0.6,0 0,-0.4 h 0 c -0.1,0.3 -0.4,0.4 -0.8,0.4 -0.6,0 -1,-0.5 -1,-1.3 0,-0.9 0.5,-1.4 1.1,-1.4 0.3,0 0.5,0.1 0.7,0.3 h 0 v -1.5 h 0.6 z m -0.6,2.2 c 0,-0.1 0,-0.1 0,-0.2 0,-0.2 -0.2,-0.4 -0.5,-0.4 -0.4,0 -0.6,0.4 -0.6,0.9 0,0.5 0.2,0.8 0.6,0.8 0.2,0 0.4,-0.1 0.5,-0.4 0,-0.1 0,-0.1 0,-0.2 l 0,-0.5 z" style="fill:#fff"/><path id="path3688" d="m 475.8,129.7 c 0.1,0.1 0.4,0.2 0.6,0.2 0.3,0 0.4,-0.1 0.4,-0.3 0,-0.2 -0.1,-0.3 -0.4,-0.4 -0.5,-0.2 -0.7,-0.5 -0.7,-0.8 0,-0.5 0.4,-0.8 0.9,-0.8 0.3,0 0.5,0.1 0.6,0.1 l -0.1,0.5 c -0.1,-0.1 -0.3,-0.1 -0.5,-0.1 -0.2,0 -0.3,0.1 -0.3,0.3 0,0.2 0.1,0.2 0.4,0.4 0.4,0.2 0.7,0.4 0.7,0.8 0,0.5 -0.4,0.8 -1,0.8 -0.3,0 -0.6,-0.1 -0.7,-0.2 l 0.1,-0.5 z" style="fill:#fff"/><path id="path3690" d="m 478.6,127 v 0.7 h 0.6 v 0.5 h -0.6 v 1.2 c 0,0.3 0.1,0.5 0.3,0.5 0.1,0 0.2,0 0.2,0 l 0,0.5 c -0.1,0 -0.3,0.1 -0.5,0.1 -0.2,0 -0.4,-0.1 -0.5,-0.2 -0.1,-0.1 -0.2,-0.4 -0.2,-0.7 v -1.3 h -0.4 l 0,-0.5 0.4,0 0,-0.5 0.7,-0.3 z" style="fill:#fff"/><path id="path3692" d="m 482,129 c 0,1 -0.6,1.4 -1.2,1.4 -0.7,0 -1.2,-0.5 -1.2,-1.4 0,-0.9 0.5,-1.4 1.2,-1.4 0.7,0 1.2,0.5 1.2,1.4 z m -1.8,0 c 0,0.5 0.2,0.9 0.6,0.9 0.4,0 0.6,-0.4 0.6,-0.9 0,-0.4 -0.1,-0.9 -0.6,-0.9 -0.5,0 -0.6,0.5 -0.6,0.9 z" style="fill:#fff"/><path id="path3694" d="m 482.5,128.5 c 0,-0.3 0,-0.6 0,-0.8 h 0.6 l 0,0.5 h 0 c 0.1,-0.3 0.4,-0.5 0.7,-0.5 0.1,0 0.1,0 0.1,0 v 0.6 c 0,0 -0.1,0 -0.2,0 -0.3,0 -0.5,0.2 -0.6,0.5 0,0.1 0,0.1 0,0.2 v 1.4 h -0.6 l 0,-1.9 z" style="fill:#fff"/><path id="path3696" d="m 484.3,128.4 c 0,-0.3 0,-0.5 0,-0.8 l 0.6,0 0,0.4 h 0 c 0.1,-0.2 0.4,-0.4 0.8,-0.4 0.3,0 0.6,0.2 0.7,0.5 h 0 c 0.1,-0.1 0.2,-0.2 0.3,-0.3 0.1,-0.1 0.3,-0.1 0.5,-0.1 0.4,0 0.8,0.3 0.8,1.1 v 1.6 h -0.6 l 0,-1.5 c 0,-0.4 -0.1,-0.7 -0.4,-0.7 -0.2,0 -0.4,0.1 -0.4,0.3 0,0.1 0,0.1 0,0.2 l 0,1.6 H 486 v -1.6 c 0,-0.3 -0.1,-0.6 -0.4,-0.6 -0.2,0 -0.4,0.2 -0.4,0.4 0,0.1 0,0.1 0,0.2 l 0,1.6 -0.6,0 v -1.9 z" style="fill:#fff"/><path id="path3698" d="m 488.5,129.9 c 0,-0.2 0.2,-0.4 0.4,-0.4 0.2,0 0.4,0.2 0.4,0.4 0,0.2 -0.2,0.4 -0.4,0.4 -0.2,0.1 -0.4,-0.1 -0.4,-0.4 z" style="fill:#fff"/><path id="path3700" d="m 490.5,126.9 c 0,0.2 -0.1,0.4 -0.4,0.4 -0.2,0 -0.3,-0.2 -0.3,-0.4 0,-0.2 0.1,-0.4 0.4,-0.4 0.2,0.1 0.3,0.2 0.3,0.4 z m -0.7,3.4 0,-2.6 h 0.6 l 0,2.6 h -0.6 z" style="fill:#fff"/><path id="path3702" d="m 493.4,129 c 0,1 -0.6,1.4 -1.2,1.4 -0.7,0 -1.2,-0.5 -1.2,-1.4 0,-0.9 0.5,-1.4 1.2,-1.4 0.7,0 1.2,0.5 1.2,1.4 z m -1.8,0 c 0,0.5 0.2,0.9 0.6,0.9 0.4,0 0.6,-0.4 0.6,-0.9 0,-0.4 -0.1,-0.9 -0.6,-0.9 -0.4,0 -0.6,0.5 -0.6,0.9 z" style="fill:#fff"/></g><path id="path3704" d="m 77.48283,31 c -2.7,-1.8 -5.7,-3.2 -9,-4.2 1.4,-0.7 6.2,-0.3 6.2,-0.3 0,0 -1.2,-1 -3.2,-1.7 -2,-0.7 -5,-0.2 -5.1,-0.2 0,0 0,0 0.1,0 l -0.1,0 c 0,0 2.6,-1.2 3.7,-2.9 -1.1,0.2 -3.4,0.6 -7.7,0.8 -8.8,0.4 -18.8,2.2 -18.8,2.2 -4,0.5 -7.5,1.4 -10.3,2.6 -18.8,8.3 -31.8,29.5 -31.8,29.5 0,0 10.8,30.9 47.7,34.9 36.5,4 53.9,-23.9 53.9,-23.9 0,0 -10.2,-26.5 -25.6,-36.8 z" style="fill:#e8b779"/><path id="path3706" d="m 38.38283,47.4 c 0,0 3.8,4.8 1.5,14 0,0 -7.2,0.4 -13.7,-2.9 8.7,1.6 11.9,0.1 11.9,0.1 1.8,-3.5 0.3,-11.2 0.3,-11.2 z" style="fill:#d69e63"/><path id="path3708" d="m 35.58283,43.4 c -9,-7.6 -18.4,3.5 -20.5,5.7 -0.8,0.8 3,4.6 4.2,5.6 l 0,0 c 4.7,4.2 15.1,6 19.1,5.3 0,0 4.3,-10.6 -2.8,-16.6" style="fill:#fff"/><linearGradient id="SVGID_3_" x1="558.182" x2="574.372" y1="1.989" y2="1.989" gradientTransform="matrix(0.9548,0.2972,-0.2972,0.9548,-511.79857,-120.7429)" gradientUnits="userSpaceOnUse"><stop offset="0" style="stop-color:#1b9763" id="stop3711"/><stop offset="1" style="stop-color:#238180" id="stop3713"/></linearGradient><path id="path3715" d="m 20.38283,47 c 1.4,-4.6 6.1,-7.2 10.5,-5.8 4.4,1.4 6.8,6.2 5.3,10.7 -1.4,4.6 -6.1,7.2 -10.5,5.8 -4.3,-1.4 -6.7,-6.2 -5.3,-10.7 z" style="fill:url(#SVGID_3_)"/><path id="path3717" d="m 32.98283,49.6 c -1,3.3 -4.2,5.3 -7.2,4.4 -3,-0.9 -4.6,-4.3 -3.7,-7.6 1,-3.3 4.2,-5.3 7.2,-4.4 3.1,0.9 4.7,4.3 3.7,7.6" style="fill:#020202"/><path id="path3719" d="m 27.48283,48.2 -5.1,2.8 c 0,0 1.2,2.3 3,2.9 2.8,0.8 4.8,-0.5 4.8,-0.5 l -2.7,-5.2 z" style="fill:#192c35"/><rect id="rect3721" width="2.3" height="2.3" x="36.009" y="33.067" transform="matrix(0.95484228,0.29711315,-0.29711315,0.95484228,0,0)" style="fill:#fdf3d8"/><path id="path3723" d="m 64.68283,49.7 c 0,0 -5.4,3.3 -6.5,13 0,0 6.8,3 14.3,2.1 -9,-1.6 -11.6,-4.2 -11.6,-4.2 -0.4,-4 3.8,-10.9 3.8,-10.9 z" style="fill:#d69e63"/><path id="path3725" d="m 64.98283,50.1 c 0,0 -4.2,0.2 -7,0.1 0,0 3.4,0.6 3.7,1 0.5,0.6 -0.8,3.1 -0.8,3.1 l 4.1,-4.2 z" style="fill:#d69e63"/><path id="path3727" d="m 59.88283,62.5 c 3.7,2 14.2,3.6 20.2,1.4 l 0,0 c 1.5,-0.5 6.4,-3.1 6.2,-3.8 -1.1,-2.9 -6.8,-16.2 -18.2,-12.2 -9,3.1 -8.2,14.6 -8.2,14.6" style="fill:#fff"/><linearGradient id="SVGID_4_" x1="536.235" x2="552.425" y1="45.45" y2="45.45" gradientTransform="matrix(0.9942,0.1078,-0.1078,0.9942,-464.61297,-47.7748)" gradientUnits="userSpaceOnUse"><stop offset="0" style="stop-color:#1b9763" id="stop3730"/><stop offset="1" style="stop-color:#238180" id="stop3732"/></linearGradient><path id="path3734" d="m 63.38283,55.2 c 0.5,-4.8 4.6,-8.2 9.2,-7.7 4.6,0.5 7.8,4.7 7.3,9.5 -0.5,4.8 -4.6,8.2 -9.2,7.7 -4.5,-0.5 -7.8,-4.8 -7.3,-9.5 z" style="fill:url(#SVGID_4_)"/><path id="path3736" d="m 75.98283,55.2 c -0.3,3.4 -3.1,6 -6.2,5.7 -3.1,-0.3 -5.4,-3.3 -5.1,-6.8 0.3,-3.4 3.1,-6 6.2,-5.7 3.2,0.3 5.4,3.4 5.1,6.8" style="fill:#020202"/><path id="path3738" d="m 70.38283,54.9 -4.5,3.7 c 0,0 1.6,2 3.5,2.2 2.9,0.3 4.6,-1.4 4.6,-1.4 l -3.6,-4.5 z" style="fill:#192c35"/><rect id="rect3740" width="2.3" height="2.3" x="71.526" y="43.512" transform="matrix(0.99418363,0.10769823,-0.10769823,0.99418363,0,0)" style="fill:#fdf3d8"/><path id="path3742" d="m 60.68283,50.2 c 0,0 9.7,-0.3 15.9,-0.4 2.7,0 4.1,1.3 4.1,1.1 -0.2,-0.7 -10,-8.6 -10,-8.6 l -8.3,3.3 -1.7,4.6" style="fill:#e8b779"/><path id="path3744" d="m 85.78283,38.2 c 0,0 -3.1,3.8 -7.5,6.6 0,0 8.3,0.7 11.5,-1.5 0,0 -1.9,-2.9 -4,-5.1 z" style="fill:#815631"/><path id="path3746" d="m 30.48283,28.6 c 0,0 6,0 8.3,6.7 0,0 -6.1,-6.6 -15.9,-1.9 0,0 5.1,-3.4 7.6,-4.8 z" style="fill:#815631"/><path id="path3748" d="m 79.38283,32.4 c -0.7,-0.6 -2.6,-1.7 -2.9,-2 0.3,0.9 0.7,2.6 -0.6,4.2 -0.7,0.7 -2.3,1.7 -6,2.6 -2.9,0.5 -8.4,2 -7.7,6.7 0,0 0.2,-0.4 0.5,-0.9 -0.2,0.3 -0.3,0.5 -0.5,0.9 0.2,-0.3 2.2,-4.1 9.3,-3.9 0.1,0 6.1,0.2 7.7,-2.2 1.3,-1.9 0.8,-4.4 0.2,-5.4 z" style="fill:#815631"/><path id="path3750" d="m 37.88283,25.7 c 0.8,-0.1 3.6,-0.7 4,-0.7 -0.7,0.5 -0.9,1 -0.7,2.9 1.3,1.9 2.9,1.6 4.4,2.7 2,1.9 2.7,3.8 0.6,7.1 0,0 1,-3.2 -3.1,-5.5 -3,-1.7 -6.4,-2.3 -6.8,-4.5 -0.2,-2.2 0.6,-1.6 1.6,-2 z" style="fill:#815631"/><g id="g3752" transform="translate(-430.51717,-1.3)"><linearGradient id="SVGID_5_" x1="482.826" x2="482.826" y1="93.385" y2="57.256" gradientUnits="userSpaceOnUse"><stop offset="0" style="stop-color:#d69e63" id="stop3755"/><stop offset=".031" style="stop-color:#d8a166;stop-opacity:.9687" id="stop3757"/><stop offset=".213" style="stop-color:#e1ae71;stop-opacity:.7869" id="stop3759"/><stop offset=".455" style="stop-color:#e6b577;stop-opacity:.5449" id="stop3761"/><stop offset="1" style="stop-color:#e8b779;stop-opacity:0" id="stop3763"/></linearGradient><path id="path3765" d="m 432.6,57.3 c -0.4,0.5 -0.5,0.9 -0.5,0.9 0,0 10.7,30.8 47.6,34.8 36.5,4 53.9,-23.9 53.9,-23.9 0,0 -0.4,-1 -1.1,-2.7 l -99.9,-9.1 z" style="fill:url(#SVGID_5_)"/></g><path id="path3767" d="m 4.38283,52.6 c 0,0 -1.2,1.6 -1.6,2.2 -0.3,0.4 -1.4,2.1 -1.4,2.1 0,0 0.6,1.2 1.2,2.6 0.6,1.4 2.1,4 2.1,4 0,0 2,0.3 6.9,-0.2 4.8,-0.4 10.7,-2.2 10.7,-2.2 -10.6,-3.5 -17.9,-8.5 -17.9,-8.5 z" style="fill:#825730"/><path id="path3769" d="m 101.18283,63.1 c 0,0 0.8,1.8 1.1,2.5 0.2,0.4 0.9,2.3 0.9,2.3 0,0 -0.5,0.9 -1.7,2.4 -1,1.2 -3,3.5 -3,3.5 0,0 -2,-0.2 -6.7,-1.7 -4.6,-1.4 -10,-4.4 -10,-4.4 11.2,-1.3 19.4,-4.6 19.4,-4.6 z" style="fill:#825730"/><g id="g3771" transform="translate(-430.51717,-1.3)"><path id="path3773" d="m 471.4,68.4 -0.6,-0.6 c 0,0 0.7,3.1 2.4,4.4 2,1.6 4.8,2.9 4.8,2.9 0,0 4.9,-1.4 6.4,-2.4 2,-1.3 2.2,-2.9 2.2,-2.9 l -3.7,0.2 -3.1,1.4 -4,-1.4 -4.4,-1.6 z" style="fill:#d49d63"/></g><path id="path3775" d="m 42.08283,66.8 -1.9,-0.2 c 0,0 0.4,1.4 1.2,2.6 0.8,1.3 2,1.6 2,1.6 0,0 -2.3,-2.9 -1.3,-4 z"/><path id="path3777" d="m 54.18283,68.4 1.9,0.3 c 0,0 -0.2,1.4 -1.7,2.3 -1.3,0.8 -2.3,1 -2.3,1 0,0 3.8,-2.5 2.1,-3.6 z"/><path id="path3779" d="m 46.18283,75.5 c 0.6,-0.3 0.7,-0.8 0.8,-1.5 0.1,-0.9 -0.1,-1.7 -0.1,-1.7 l 1.1,0.1 c 0,0 -0.3,0.8 -0.4,1.6 -0.1,0.5 0,1.2 0.4,1.5 0.2,0.2 -2,0.1 -1.8,0 z" style="fill:#825730"/><path id="path3781" d="m 40.28283,66.5 c 0,0 1.8,-0.6 2.9,-0.3 1.1,0.3 2.9,1.8 4.9,2.1 2.1,0.3 3.5,-1 5.2,-0.8 1.7,0.2 2.7,1.1 2.7,1.1 0,0 -5.9,4.2 -8.3,3.9 -1.6,-0.2 -3.8,-1.9 -7.4,-6 z" style="fill:#483729"/><path id="path3783" d="m 79.58283,132.7 c -1,-1.8 -11.7,-13.5 -19.8,-35.1 -0.3,-0.9 -12,1.2 -11.8,1.8 6,18.6 24.4,37.2 24.4,37.2 0,0 7.6,-3.1 7.2,-3.9 z" style="fill:#e8b779"/><path id="path3785" d="m 52.18283,76.6 c -1.7,-0.7 -4.2,-1.4 -4.2,-1.4 l -0.1,0 c -0.2,-0.1 -0.3,-0.3 -0.5,-0.4 l 0,-0.5 c 0,0 -0.1,0.1 -0.3,0.2 -0.1,-0.1 -0.1,-0.1 -0.1,-0.1 l 0,0.2 c -0.2,0.1 -0.5,0.4 -0.6,0.4 -0.6,0.1 -2.5,0.2 -4.8,0.5 -0.7,0.1 -6,1.2 -6,1.2 0,0 2.2,0 3.4,-0.1 1.2,-0.1 4.5,-0.4 7,-0.3 1.3,0 4.2,0.7 7.2,2.2 3.1,1.6 5.1,3 5.1,3 0,0 -3.4,-3.7 -6.1,-4.9 z" style="fill:#825730"/><path id="path3787" d="m 38.48283,92 c 0,0 0,0.8 -0.1,2.4 -0.1,1.3 0.1,2 0.4,2.9 0.4,1.3 0.8,1.7 0.9,1.9 0.4,0.6 0.6,0.8 0.8,1.4 0.5,1.4 1.3,2.3 1.9,2.7 3.7,2.5 12.5,2.9 12.5,2.9 l -1.7,-5.5 -14.7,-8.7 z" style="fill:#e8b779"/><linearGradient id="SVGID_6_" x1="479.024" x2="479.024" y1="93.055" y2="83.913" gradientTransform="translate(-430.51717,-1.3)" gradientUnits="userSpaceOnUse"><stop offset="0" style="stop-color:#d69e63" id="stop3790"/><stop offset=".743" style="stop-color:#d69e63;stop-opacity:.4848" id="stop3792"/><stop offset=".866" style="stop-color:#d69e63;stop-opacity:.4" id="stop3794"/></linearGradient><path id="path3796" d="m 35.88283,83.2 c 0.9,-0.5 4.6,-1.5 8.2,1.2 3.6,2.7 10.5,2.8 11.1,2.2 4.5,-4.4 8.4,-0.1 8.4,-0.1 l -1,5.3 -1.9,-0.2 -20.4,0.2 c 0,0 -6.2,-3.2 -6.7,-4.9 -0.5,-1.7 1.4,-3.2 2.3,-3.7 z" style="opacity:.8;fill:url(#SVGID_6_)"/><path id="path3798" d="m 49.48283,104.2 c 0,0 -13.7,-14.8 -15.4,-16.9 -1.7,-2.1 5.3,-7.3 11.3,-0.3 2.7,3.1 9.2,3.6 9.2,3.6 0,0 0.8,-3.7 3.4,-4.8 2.6,-1.1 5,0.5 5,0.9 0,0.4 -2.1,9.4 -3.1,10.9 -1,1.6 -10.4,6.6 -10.4,6.6 z" style="fill:#e8b779"/><path id="path3800" d="m 40.58283,79.9 c 0,0 4.2,-0.5 8,1 1.1,0.4 1.4,1 1.4,1 0,0 -1.8,-0.9 -4.2,-0.8 -2.4,0.2 -5.2,-1.2 -5.2,-1.2 z" style="fill:#d69f63"/><path id="path3802" d="m 38.58283,92.4 c 0,0 1.4,1.8 5.4,3.1 0.6,0.2 -1.6,0.1 -3.4,-0.3 -1.6,-0.4 -2.2,-1.2 -2.2,-1.2 l 0.2,-1.6 z" style="fill:#d69f63"/><path id="path3804" d="m 39.68283,99.1 c 0,0 2.4,1.1 3.5,1.3 0.9,0.2 -2.7,0.1 -2.7,0.1 l -0.8,-1.4 z" style="fill:#d69f63"/></svg>