<svg xmlns="http://www.w3.org/2000/svg" xmlns:svg="http://www.w3.org/2000/svg" xmlns:xlink="http://www.w3.org/1999/xlink" id="Layer_1" width="100%" height="100%" x="0" y="0" enable-background="new 0 0 113.5 30.6" version="1.1" viewBox="0 0 30.6 30.6" xml:space="preserve"><metadata id="metadata239"/><g id="g3996" transform="translate(-1.300955,1.3126608)"><rect style="fill:#fff;fill-opacity:1" id="rect11" width="3.6" height="3.6" x="1.3" y="16"/><rect style="fill:#fff;fill-opacity:1" id="rect13" width="3.6" height="3.6" x="1.3" y="19.2"/><rect style="fill:#fff;fill-opacity:1" id="rect15" width="3.6" height="3.6" x="1.3" y="22.5"/><rect style="fill:#fff;fill-opacity:1" id="rect17" width="3.6" height="3.6" x="1.3" y="25.7"/><rect style="fill:#fff;fill-opacity:1" id="rect19" width=".9" height=".9" x="5.4" y="14.7"/><rect style="fill:#fff;fill-opacity:1" id="rect21" width=".9" height=".9" x="5.4" y="15.5"/><rect style="fill:#fff;fill-opacity:1" id="rect23" width=".9" height=".9" x="5.4" y="16.3"/><rect style="fill:#fff;fill-opacity:1" id="rect25" width=".9" height=".9" x="5.4" y="17.1"/><rect style="fill:#fff;fill-opacity:1" id="rect27" width=".9" height=".9" x="6.2" y="14.7"/><rect style="fill:#fff;fill-opacity:1" id="rect29" width=".9" height=".9" x="6.2" y="15.5"/><rect style="fill:#fff;fill-opacity:1" id="rect31" width=".9" height=".9" x="6.2" y="16.3"/><rect style="fill:#fff;fill-opacity:1" id="rect33" width=".9" height=".9" x="6.2" y="17.1"/><rect style="fill:#fff;fill-opacity:1" id="rect35" width=".9" height=".9" x="7.2" y="14.3"/><rect style="fill:#fff;fill-opacity:1" id="rect37" width=".9" height=".9" x="7" y="15.5"/><rect style="fill:#fff;fill-opacity:1" id="rect39" width=".9" height=".9" x="7" y="16.3"/><rect style="fill:#fff;fill-opacity:1" id="rect41" width=".9" height=".9" x="7" y="17.1"/><rect style="fill:#fff;fill-opacity:1" id="rect43" width=".9" height=".9" x="11.7" y="9.7"/><rect style="fill:#fff;fill-opacity:1" id="rect45" width=".9" height=".9" x="8.1" y="15.1"/><rect style="fill:#fff;fill-opacity:1" id="rect47" width=".9" height=".9" x="7.8" y="16.3"/><rect style="fill:#fff;fill-opacity:1" id="rect49" width=".9" height=".9" x="7.8" y="17.1"/><rect style="fill:#fff;fill-opacity:1" id="rect51" width="3.6" height="3.6" x="4.5" y="19.2"/><rect style="fill:#fff;fill-opacity:1" id="rect53" width="3.6" height="3.6" x="4.5" y="22.5"/><rect style="fill:#fff;fill-opacity:1" id="rect55" width="3.6" height="3.6" x="4.5" y="25.7"/><rect style="fill:#fff;fill-opacity:1" id="rect57" width=".9" height=".9" x="9.7" y="13.6"/><rect style="fill:#fff;fill-opacity:1" id="rect59" width=".9" height=".9" x="9.7" y="14.4"/><rect style="fill:#fff;fill-opacity:1" id="rect61" width=".9" height=".9" x="9.7" y="15.2"/><rect style="fill:#fff;fill-opacity:1" id="rect63" width=".9" height=".9" x="9.7" y="16.1"/><rect style="fill:#fff;fill-opacity:1" id="rect65" width=".9" height=".9" x="10.9" y="12.9"/><rect style="fill:#fff;fill-opacity:1" id="rect67" width=".9" height=".9" x="10.5" y="14.4"/><rect style="fill:#fff;fill-opacity:1" id="rect69" width=".9" height=".9" x="10.5" y="15.2"/><rect style="fill:#fff;fill-opacity:1" id="rect71" width=".9" height=".9" x="10.5" y="16.1"/><rect style="fill:#fff;fill-opacity:1" id="rect73" width=".9" height=".9" x="15.5" y="8"/><rect style="fill:#fff;fill-opacity:1" id="rect75" width=".9" height=".9" x="11.9" y="13.8"/><rect style="fill:#fff;fill-opacity:1" id="rect77" width=".9" height=".9" x="11.3" y="15.2"/><rect style="fill:#fff;fill-opacity:1" id="rect79" width=".9" height=".9" x="11.3" y="16.1"/><rect style="fill:#fff;fill-opacity:1" id="rect81" width=".9" height=".9" x="19.2" y="8"/><rect style="fill:#fff;fill-opacity:1" id="rect83" width=".9" height=".9" x="17.2" y="9.9"/><rect style="fill:#fff;fill-opacity:1" id="rect85" width=".9" height=".9" x="12.8" y="14.8"/><rect style="fill:#fff;fill-opacity:1" id="rect87" width=".9" height=".9" x="12.1" y="16.1"/><rect style="fill:#fff;fill-opacity:1" id="rect89" width=".9" height=".9" x="8.8" y="18.2"/><rect style="fill:#fff;fill-opacity:1" id="rect91" width=".9" height=".9" x="8.8" y="19"/><rect style="fill:#fff;fill-opacity:1" id="rect93" width=".9" height=".9" x="8.8" y="19.8"/><rect style="fill:#fff;fill-opacity:1" id="rect95" width=".9" height=".9" x="8.8" y="20.6"/><rect style="fill:#fff;fill-opacity:1" id="rect97" width=".9" height=".9" x="9.7" y="18.2"/><rect style="fill:#fff;fill-opacity:1" id="rect99" width=".9" height=".9" x="9.7" y="19"/><rect style="fill:#fff;fill-opacity:1" id="rect101" width=".9" height=".9" x="9.7" y="19.8"/><rect style="fill:#fff;fill-opacity:1" id="rect103" width=".9" height=".9" x="9.7" y="20.6"/><rect style="fill:#fff;fill-opacity:1" id="rect105" width=".9" height=".9" x="10.8" y="17.8"/><rect style="fill:#fff;fill-opacity:1" id="rect107" width=".9" height=".9" x="10.5" y="19"/><rect style="fill:#fff;fill-opacity:1" id="rect109" width=".9" height=".9" x="10.5" y="19.8"/><rect style="fill:#fff;fill-opacity:1" id="rect111" width=".9" height=".9" x="10.5" y="20.6"/><rect style="fill:#fff;fill-opacity:1" id="rect113" width=".9" height=".9" x="15.7" y="13.8"/><rect style="fill:#fff;fill-opacity:1" id="rect115" width=".9" height=".9" x="11.7" y="18.7"/><rect style="fill:#fff;fill-opacity:1" id="rect117" width=".9" height=".9" x="11.3" y="19.8"/><rect style="fill:#fff;fill-opacity:1" id="rect119" width=".9" height=".9" x="11.3" y="20.6"/><rect style="fill:#fff;fill-opacity:1" id="rect121" width="3.6" height="3.6" x="7.8" y="22.5"/><rect style="fill:#fff;fill-opacity:1" id="rect123" width="3.6" height="3.6" x="7.8" y="25.7"/><rect style="fill:#fff;fill-opacity:1" id="rect125" width=".9" height=".9" x="14.3" y="12.7"/><rect style="fill:#fff;fill-opacity:1" id="rect127" width=".9" height=".9" x="14.3" y="13.6"/><rect style="fill:#fff;fill-opacity:1" id="rect129" width=".9" height=".9" x="14.3" y="14.4"/><rect style="fill:#fff;fill-opacity:1" id="rect131" width=".9" height=".9" x="14.3" y="15.2"/><rect style="fill:#fff;fill-opacity:1" id="rect133" width=".9" height=".9" x="18.7" y="7.4"/><rect style="fill:#fff;fill-opacity:1" id="rect135" width=".9" height=".9" x="15.1" y="13.6"/><rect style="fill:#fff;fill-opacity:1" id="rect137" width=".9" height=".9" x="15.1" y="14.4"/><rect style="fill:#fff;fill-opacity:1" id="rect139" width=".9" height=".9" x="15.1" y="15.2"/><rect style="fill:#fff;fill-opacity:1" id="rect141" width=".9" height=".9" x="23.4" y="4"/><g style="fill:#fff;fill-opacity:1" id="g143"><g style="fill:#fff;fill-opacity:1" id="g145"><defs id="defs147"><rect id="SVGID_1_" width=".9" height=".9" x="17.8" y="12.1"/></defs><use id="use150" width="113.5" height="30.6" x="0" y="0" style="fill:#fff;fill-opacity:1;overflow:visible" overflow="visible" xlink:href="#SVGID_1_"/><clipPath id="SVGID_2_"><use id="use153" width="113.5" height="30.6" x="0" y="0" style="overflow:visible" overflow="visible" xlink:href="#SVGID_1_"/></clipPath><rect style="fill:#fff;fill-opacity:1" id="rect155" width=".9" height=".9" x="17.8" y="12.1" clip-path="url(#SVGID_2_)"/></g></g><rect style="fill:#fff;fill-opacity:1" id="rect157" width=".9" height=".9" x="15.9" y="14.4"/><rect style="fill:#fff;fill-opacity:1" id="rect159" width=".9" height=".9" x="15.9" y="15.2"/><rect style="fill:#fff;fill-opacity:1" id="rect161" width=".9" height=".9" x="28.3" y="1.3"/><rect style="fill:#fff;fill-opacity:1" id="rect163" width=".9" height=".9" x="26.1" y="5.8"/><rect style="fill:#fff;fill-opacity:1" id="rect165" width=".9" height=".9" x="21.5" y="11"/><rect style="fill:#fff;fill-opacity:1" id="rect167" width=".9" height=".9" x="16.7" y="15.2"/><rect style="fill:#fff;fill-opacity:1" id="rect169" width=".9" height=".9" x="13.4" y="17.3"/><rect style="fill:#fff;fill-opacity:1" id="rect171" width=".9" height=".9" x="13.4" y="18.1"/><rect style="fill:#fff;fill-opacity:1" id="rect173" width=".9" height=".9" x="13.4" y="18.9"/><rect style="fill:#fff;fill-opacity:1" id="rect175" width=".9" height=".9" x="13.4" y="19.7"/><rect style="fill:#fff;fill-opacity:1" id="rect177" width=".9" height=".9" x="14.7" y="16.6"/><rect style="fill:#fff;fill-opacity:1" id="rect179" width=".9" height=".9" x="14.2" y="18.1"/><rect style="fill:#fff;fill-opacity:1" id="rect181" width=".9" height=".9" x="14.2" y="18.9"/><rect style="fill:#fff;fill-opacity:1" id="rect183" width=".9" height=".9" x="14.2" y="19.7"/><rect style="fill:#fff;fill-opacity:1" id="rect185" width=".9" height=".9" x="19.9" y="12.1"/><rect style="fill:#fff;fill-opacity:1" id="rect187" width=".9" height=".9" x="15.6" y="17.6"/><rect style="fill:#fff;fill-opacity:1" id="rect189" width=".9" height=".9" x="15" y="18.9"/><rect style="fill:#fff;fill-opacity:1" id="rect191" width=".9" height=".9" x="15" y="19.7"/><rect style="fill:#fff;fill-opacity:1" id="rect193" width=".9" height=".9" x="21.6" y="10.6"/><rect style="fill:#fff;fill-opacity:1" id="rect195" width=".9" height=".9" x="20.3" y="14.1"/><rect style="fill:#fff;fill-opacity:1" id="rect197" width=".9" height=".9" x="16.6" y="18.5"/><rect style="fill:#fff;fill-opacity:1" id="rect199" width=".9" height=".9" x="15.8" y="19.7"/><rect style="fill:#fff;fill-opacity:1" id="rect201" width=".9" height=".9" x="12.3" y="21.6"/><rect style="fill:#fff;fill-opacity:1" id="rect203" width=".9" height=".9" x="12.3" y="22.4"/><rect style="fill:#fff;fill-opacity:1" id="rect205" width=".9" height=".9" x="12.3" y="23.2"/><rect style="fill:#fff;fill-opacity:1" id="rect207" width=".9" height=".9" x="12.3" y="24.1"/><rect style="fill:#fff;fill-opacity:1" id="rect209" width=".9" height=".9" x="13.1" y="21.6"/><rect style="fill:#fff;fill-opacity:1" id="rect211" width=".9" height=".9" x="13.1" y="22.4"/><rect style="fill:#fff;fill-opacity:1" id="rect213" width=".9" height=".9" x="13.1" y="23.2"/><rect style="fill:#fff;fill-opacity:1" id="rect215" width=".9" height=".9" x="13.1" y="24.1"/><rect style="fill:#fff;fill-opacity:1" id="rect217" width=".9" height=".9" x="14.3" y="21.3"/><rect style="fill:#fff;fill-opacity:1" id="rect219" width=".9" height=".9" x="13.9" y="22.4"/><rect style="fill:#fff;fill-opacity:1" id="rect221" width=".9" height=".9" x="13.9" y="23.2"/><rect style="fill:#fff;fill-opacity:1" id="rect223" width=".9" height=".9" x="13.9" y="24.1"/><rect style="fill:#fff;fill-opacity:1" id="rect225" width=".9" height=".9" x="19.8" y="17.8"/><rect style="fill:#fff;fill-opacity:1" id="rect227" width=".9" height=".9" x="15.2" y="22.2"/><rect style="fill:#fff;fill-opacity:1" id="rect229" width=".9" height=".9" x="14.7" y="23.2"/><rect style="fill:#fff;fill-opacity:1" id="rect231" width=".9" height=".9" x="14.7" y="24.1"/><rect style="fill:#fff;fill-opacity:1" id="rect233" width="3.6" height="3.6" x="11" y="25.7"/></g></svg>